<svg id="Livello_1" data-name="Livello 1" xmlns="http://www.w3.org/2000/svg" viewBox="0 0 74 74"><defs><style>.cls-2{fill:#fff}</style></defs><path d="M5.29.13h63.42a5.19 5.19 0 0 1 5.19 5.19v63.37a5.18 5.18 0 0 1-5.18 5.18H5.29A5.17 5.17 0 0 1 .1 68.7V5.32A5.19 5.19 0 0 1 5.29.13" fill="#025b9d"/><path class="cls-2" d="M19.24 33h5.69a1.64 1.64 0 0 1 1.61 1.61v29.2a1.62 1.62 0 0 1-1.61 1.61h-5.69a1.61 1.61 0 0 1-1.61-1.61V34.64A1.61 1.61 0 0 1 19.24 33m-1.68-6.69a4.59 4.59 0 1 1 4.59 4.58 4.58 4.58 0 0 1-4.59-4.58M49 33h5.67a1.61 1.61 0 0 1 1.62 1.61v29.2a1.62 1.62 0 0 1-1.62 1.61H49a1.61 1.61 0 0 1-1.61-1.61V34.64A1.61 1.61 0 0 1 49 33m-1.72-6.69a4.59 4.59 0 1 1 4.58 4.58 4.58 4.58 0 0 1-4.58-4.58"/><path class="cls-2" d="M53.76 18.82a1.11 1.11 0 0 0 1.06-.82 4.24 4.24 0 0 0 .11-2.34 11.74 11.74 0 0 0-11.18-9.41 11.47 11.47 0 0 0-11.48 11.44v46.19a1.62 1.62 0 0 0 1.55 1.57h5.66a1.59 1.59 0 0 0 1.6-1.57V43.65a1 1 0 0 1 1-1 1.56 1.56 0 0 0 1.58-1.54V34.4a1.55 1.55 0 0 0-1.49-1.6h-.06a1 1 0 0 1-1-1V18.21a3 3 0 0 1 3-3.07 3.1 3.1 0 0 1 3.07 2.62V18a1.12 1.12 0 0 0 1.06.84h5.41"/></svg>